<svg width="189" height="75" viewBox="0 0 189 75" fill="none" xmlns="http://www.w3.org/2000/svg">
<path d="M93.4522 24.5493C92.988 24.7997 92.3396 25.0109 91.507 25.1831C90.6745 25.3552 89.9541 25.4413 89.3457 25.4413C88.7373 25.4413 88.217 25.4178 87.7848 25.3708C87.3685 25.3395 86.9923 25.2691 86.6561 25.1596C86.3199 25.0344 86.0237 24.917 85.7675 24.8075C85.5114 24.698 85.2792 24.5102 85.0711 24.2441C84.879 23.9781 84.7189 23.7512 84.5908 23.5634C84.4627 23.3757 84.3506 23.0705 84.2546 22.648C84.1745 22.2255 84.1105 21.8734 84.0625 21.5917C84.0144 21.2944 83.9824 20.8406 83.9664 20.2303C83.9344 19.041 83.9184 17.9221 83.9184 16.8737C83.9184 15.8252 83.9264 15.035 83.9424 14.5029C83.9584 13.9709 83.9904 13.3293 84.0385 12.5781C84.1025 11.827 84.2066 11.295 84.3506 10.982C84.4947 10.6534 84.6869 10.2856 84.927 9.87877C85.1671 9.45626 85.4793 9.16676 85.8636 9.01028C86.8882 8.63471 88.0089 8.44693 89.2256 8.44693C90.4584 8.44693 91.6591 8.61906 92.8279 8.96333L92.4676 10.4891C91.395 10.2387 90.4344 10.1135 89.5859 10.1135C88.7373 10.1135 88.097 10.1683 87.6647 10.2778C87.2484 10.3874 86.9282 10.5125 86.7041 10.6534C86.48 10.7942 86.3119 11.0211 86.1998 11.3341C86.1037 11.6471 86.0477 11.9209 86.0317 12.1556C86.0157 12.3747 86.0077 12.719 86.0077 13.1884V20.6293C86.0077 21.8812 86.1357 22.6402 86.3919 22.9062C86.8082 23.3287 87.2564 23.5791 87.7367 23.6573C88.217 23.7356 88.7934 23.7747 89.4658 23.7747C90.1382 23.7747 90.8266 23.7043 91.5311 23.5634V18.2351H89.2497V16.8267H93.4522V24.5493Z" fill="#010101"/>
<path d="M100.675 18.8689H99.1139V25.1596H97.0486V8.7286H100.675C102.596 8.7286 103.965 9.11199 104.781 9.87877C105.598 10.6299 106.006 11.9366 106.006 13.7987C106.006 15.0819 105.814 16.0991 105.43 16.8502C105.062 17.5857 104.469 18.1099 103.653 18.4229L106.414 25.1596H104.301L101.659 18.8454C101.451 18.861 101.123 18.8689 100.675 18.8689ZM103.917 14.3151V13.2823C103.917 12.8442 103.909 12.5234 103.893 12.3199C103.877 12.1009 103.813 11.8427 103.701 11.5453C103.605 11.248 103.445 11.0289 103.22 10.8881C102.66 10.5595 101.82 10.3952 100.699 10.3952H99.1139V17.2023H100.699C101.82 17.2023 102.66 17.038 103.22 16.7094C103.445 16.5685 103.605 16.3495 103.701 16.0521C103.813 15.7548 103.877 15.5044 103.893 15.301C103.909 15.0819 103.917 14.7533 103.917 14.3151Z" fill="#010101"/>
<path d="M117.846 24.9014C117.462 25.0422 116.99 25.1674 116.429 25.277C115.885 25.3865 115.293 25.4413 114.652 25.4413C114.012 25.4413 113.476 25.4178 113.043 25.3708C112.627 25.3395 112.251 25.2691 111.915 25.1596C111.579 25.0344 111.282 24.917 111.026 24.8075C110.77 24.698 110.538 24.5102 110.33 24.2441C110.138 23.9781 109.978 23.7512 109.849 23.5634C109.721 23.3757 109.609 23.0705 109.513 22.648C109.433 22.2255 109.369 21.8734 109.321 21.5917C109.273 21.2944 109.241 20.8406 109.225 20.2303C109.193 19.041 109.177 17.9221 109.177 16.8737C109.177 15.8252 109.185 15.035 109.201 14.5029C109.217 13.9709 109.249 13.3293 109.297 12.5781C109.361 11.827 109.465 11.295 109.609 10.982C109.753 10.6534 109.946 10.2856 110.186 9.87877C110.426 9.45626 110.738 9.16676 111.122 9.01028C112.147 8.63471 113.228 8.44693 114.364 8.44693C115.501 8.44693 116.397 8.56429 117.054 8.79902C117.726 9.0181 118.255 9.28413 118.639 9.5971C119.023 9.91007 119.295 10.4891 119.455 11.3341C119.631 12.1791 119.736 12.9459 119.768 13.6344C119.8 14.323 119.816 15.3323 119.816 16.6624C119.816 17.9769 119.808 18.9002 119.792 19.4322C119.776 19.9643 119.736 20.6059 119.671 21.357C119.623 22.1081 119.527 22.648 119.383 22.9766C119.239 23.2896 119.047 23.6495 118.807 24.0564C118.567 24.4632 118.247 24.7449 117.846 24.9014ZM117.726 20.6293V13.2589C117.726 12.007 117.59 11.248 117.318 10.982C116.918 10.5595 116.478 10.3091 115.997 10.2309C115.533 10.1526 115.037 10.1135 114.508 10.1135C113.98 10.1135 113.524 10.1448 113.139 10.2074C112.755 10.27 112.443 10.3795 112.203 10.536C111.979 10.6925 111.795 10.8412 111.651 10.982C111.522 11.1228 111.426 11.3419 111.362 11.6392C111.298 12.0148 111.266 12.5547 111.266 13.2589V20.6293C111.266 21.8812 111.394 22.6402 111.651 22.9062C112.067 23.3287 112.515 23.5791 112.995 23.6573C113.476 23.7356 113.98 23.7747 114.508 23.7747C115.037 23.7747 115.485 23.7434 115.853 23.6808C116.237 23.6182 116.542 23.5087 116.766 23.3522C117.006 23.1957 117.19 23.047 117.318 22.9062C117.462 22.7654 117.558 22.5463 117.606 22.249C117.686 21.8734 117.726 21.3335 117.726 20.6293Z" fill="#010101"/>
<path d="M131.697 20.6293V8.7286H133.763V16.9676C133.763 20.3164 133.619 22.3116 133.33 22.9531C133.202 23.2661 133.01 23.6339 132.754 24.0564C132.514 24.4632 132.202 24.7449 131.818 24.9014C131.433 25.0422 130.961 25.1674 130.401 25.277C129.856 25.3865 129.208 25.4413 128.455 25.4413C127.703 25.4413 127.055 25.3865 126.51 25.277C125.966 25.1674 125.494 25.0422 125.093 24.9014C124.709 24.7449 124.397 24.4632 124.157 24.0564C123.917 23.6339 123.725 23.2661 123.58 22.9531C123.452 22.6402 123.356 22.1081 123.292 21.357C123.212 20.4181 123.172 18.9549 123.172 16.9676V8.7286H125.237V20.6293C125.237 21.0988 125.245 21.4509 125.261 21.6856C125.278 21.9047 125.334 22.1707 125.43 22.4837C125.542 22.7967 125.71 23.0236 125.934 23.1644C126.158 23.3052 126.478 23.4304 126.894 23.54C127.327 23.6495 127.855 23.7043 128.479 23.7043C129.104 23.7043 129.624 23.6495 130.04 23.54C130.457 23.4304 130.777 23.3052 131.001 23.1644C131.225 23.0236 131.385 22.7967 131.481 22.4837C131.593 22.1707 131.657 21.9047 131.673 21.6856C131.689 21.4509 131.697 21.0988 131.697 20.6293Z" fill="#010101"/>
<path d="M137.493 8.7286H140.519L145.346 22.4367H145.49V8.7286H147.507V25.1596H144.481L139.654 11.4515H139.51V25.1596H137.493V8.7286Z" fill="#010101"/>
<path d="M151.342 8.7286H156.145C157.441 8.7286 158.562 8.90074 159.507 9.24501C159.907 9.38584 160.227 9.65187 160.467 10.0431C160.707 10.4186 160.9 10.7629 161.044 11.0759C161.188 11.3889 161.284 11.9053 161.332 12.6251C161.428 13.7831 161.476 15.1836 161.476 16.8267C161.476 18.4542 161.46 19.6044 161.428 20.2772C161.396 20.9501 161.292 21.6934 161.116 22.5072C160.956 23.3052 160.683 23.8451 160.299 24.1268C159.355 24.8153 157.97 25.1596 156.145 25.1596H151.342V8.7286ZM156.169 10.4186H153.407V23.4226H156.169C157.273 23.4226 158.114 23.2426 158.69 22.8827C159.09 22.6323 159.315 22.1394 159.363 21.4039C159.379 21.1692 159.387 20.8171 159.387 20.3477V13.4936C159.387 13.0241 159.379 12.6799 159.363 12.4608C159.347 12.2261 159.283 11.9522 159.171 11.6392C159.074 11.3263 158.914 11.0994 158.69 10.9585C158.114 10.5986 157.273 10.4186 156.169 10.4186Z" fill="#010101"/>
<path d="M82.3574 31.9667V30.3236H91.483V31.9667H87.9529V46.7546H85.8876V31.9667H82.3574Z" fill="#010101"/>
<path d="M97.0398 40.4639H95.4789V46.7546H93.4136V30.3236H97.0398C98.961 30.3236 100.33 30.707 101.146 31.4738C101.963 32.2249 102.371 33.5316 102.371 35.3937C102.371 36.6769 102.179 37.6941 101.795 38.4452C101.427 39.1807 100.834 39.7049 100.018 40.0179L102.779 46.7546H100.666L98.0244 40.4404C97.8163 40.4561 97.4881 40.4639 97.0398 40.4639ZM100.282 35.9101V34.8773C100.282 34.4392 100.274 34.1184 100.258 33.915C100.242 33.6959 100.178 33.4377 100.066 33.1404C99.9696 32.843 99.8095 32.6239 99.5854 32.4831C99.025 32.1545 98.1845 31.9902 97.0638 31.9902H95.4789V38.7973H97.0638C98.1845 38.7973 99.025 38.633 99.5854 38.3044C99.8095 38.1635 99.9696 37.9445 100.066 37.6471C100.178 37.3498 100.242 37.0994 100.258 36.896C100.274 36.6769 100.282 36.3483 100.282 35.9101Z" fill="#010101"/>
<path d="M106.695 46.7546H104.581L108.568 30.3236H112.074L116.06 46.7546H113.947L112.963 42.5999H107.679L106.695 46.7546ZM112.554 40.9568L110.393 31.8259H110.249L108.064 40.9568H112.554Z" fill="#010101"/>
<path d="M118.578 30.3236H121.604L126.431 44.0317H126.575V30.3236H128.593V46.7546H125.567L120.74 33.0465H120.596V46.7546H118.578V30.3236Z" fill="#010101"/>
<path d="M140.712 42.2713C140.712 43.7422 140.352 44.9081 139.632 45.7687C138.911 46.6138 137.727 47.0363 136.078 47.0363C134.445 47.0363 132.948 46.7468 131.587 46.1678L132.019 44.7125C133.3 45.1506 134.613 45.3697 135.957 45.3697C136.902 45.3697 137.59 45.1428 138.023 44.689C138.471 44.2352 138.695 43.5388 138.695 42.5999C138.695 41.661 138.575 40.949 138.335 40.4639C138.095 39.9788 137.59 39.6814 136.822 39.5719L134.445 39.2433C133.324 39.0712 132.571 38.6252 132.187 37.9053C131.819 37.1855 131.635 36.0979 131.635 34.6426C131.635 33.1873 132.019 32.0606 132.787 31.2625C133.572 30.4488 134.645 30.0419 136.005 30.0419C137.382 30.0419 138.759 30.2923 140.136 30.7931L139.704 32.2014C138.503 31.8728 137.414 31.7085 136.438 31.7085C135.477 31.7085 134.773 31.9041 134.324 32.2953C133.876 32.6709 133.652 33.3829 133.652 34.4314C133.652 35.4798 133.764 36.2309 133.988 36.6847C134.228 37.1386 134.701 37.4124 135.405 37.5063L137.662 37.8349C138.687 37.9914 139.448 38.4061 139.944 39.079C140.456 39.7362 140.712 40.8003 140.712 42.2713Z" fill="#010101"/>
<path d="M143.72 30.3236H147.346C149.267 30.3236 150.636 30.7227 151.453 31.5207C152.269 32.3188 152.677 33.6881 152.677 35.6285C152.677 37.5689 152.269 38.9381 151.453 39.7362C150.636 40.5343 149.267 40.9333 147.346 40.9333H145.785V46.7546H143.72V30.3236ZM150.588 36.1918V35.0651C150.588 34.5957 150.58 34.2514 150.564 34.0323C150.548 33.7976 150.484 33.5237 150.372 33.2108C150.276 32.8978 150.116 32.6709 149.892 32.5301C149.315 32.1701 148.475 31.9902 147.37 31.9902H145.785V39.2668H147.37C148.475 39.2668 149.315 39.0868 149.892 38.7269C150.292 38.4765 150.516 37.9758 150.564 37.2246C150.58 37.0055 150.588 36.6613 150.588 36.1918Z" fill="#010101"/>
<path d="M163.861 46.4964C163.477 46.6372 163.004 46.7624 162.444 46.872C161.9 46.9815 161.307 47.0363 160.667 47.0363C160.027 47.0363 159.49 47.0128 159.058 46.9659C158.642 46.9346 158.265 46.8641 157.929 46.7546C157.593 46.6294 157.297 46.512 157.041 46.4025C156.785 46.293 156.552 46.1052 156.344 45.8392C156.152 45.5731 155.992 45.3462 155.864 45.1584C155.736 44.9707 155.624 44.6655 155.528 44.243C155.448 43.8205 155.384 43.4684 155.336 43.1867C155.288 42.8894 155.256 42.4356 155.24 41.8253C155.208 40.636 155.192 39.5171 155.192 38.4687C155.192 37.4202 155.2 36.63 155.216 36.0979C155.232 35.5659 155.264 34.9243 155.312 34.1732C155.376 33.422 155.48 32.89 155.624 32.577C155.768 32.2484 155.96 31.8806 156.2 31.4738C156.44 31.0513 156.753 30.7618 157.137 30.6053C158.161 30.2297 159.242 30.0419 160.379 30.0419C161.515 30.0419 162.412 30.1593 163.068 30.394C163.741 30.6131 164.269 30.8791 164.653 31.1921C165.038 31.5051 165.31 32.0841 165.47 32.9291C165.646 33.7741 165.75 34.5409 165.782 35.2294C165.814 35.918 165.83 36.9273 165.83 38.2574C165.83 39.5719 165.822 40.4952 165.806 41.0272C165.79 41.5593 165.75 42.2009 165.686 42.952C165.638 43.7031 165.542 44.243 165.398 44.5716C165.254 44.8846 165.062 45.2445 164.822 45.6514C164.581 46.0582 164.261 46.3399 163.861 46.4964ZM163.741 42.2243V34.8539C163.741 33.602 163.605 32.843 163.333 32.577C162.932 32.1545 162.492 31.9041 162.012 31.8259C161.547 31.7476 161.051 31.7085 160.523 31.7085C159.995 31.7085 159.538 31.7398 159.154 31.8024C158.77 31.865 158.458 31.9745 158.217 32.131C157.993 32.2875 157.809 32.4362 157.665 32.577C157.537 32.7178 157.441 32.9369 157.377 33.2342C157.313 33.6098 157.281 34.1497 157.281 34.8539V42.2243C157.281 43.4762 157.409 44.2352 157.665 44.5012C158.081 44.9237 158.53 45.1741 159.01 45.2523C159.49 45.3306 159.995 45.3697 160.523 45.3697C161.051 45.3697 161.499 45.3384 161.868 45.2758C162.252 45.2132 162.556 45.1037 162.78 44.9472C163.02 44.7907 163.205 44.642 163.333 44.5012C163.477 44.3604 163.573 44.1413 163.621 43.844C163.701 43.4684 163.741 42.9285 163.741 42.2243Z" fill="#010101"/>
<path d="M172.933 40.4639H171.372V46.7546H169.307V30.3236H172.933C174.854 30.3236 176.223 30.707 177.04 31.4738C177.856 32.2249 178.264 33.5316 178.264 35.3937C178.264 36.6769 178.072 37.6941 177.688 38.4452C177.32 39.1807 176.727 39.7049 175.911 40.0179L178.673 46.7546H176.559L173.918 40.4404C173.71 40.4561 173.381 40.4639 172.933 40.4639ZM176.175 35.9101V34.8773C176.175 34.4392 176.167 34.1184 176.151 33.915C176.135 33.6959 176.071 33.4377 175.959 33.1404C175.863 32.843 175.703 32.6239 175.479 32.4831C174.918 32.1545 174.078 31.9902 172.957 31.9902H171.372V38.7973H172.957C174.078 38.7973 174.918 38.633 175.479 38.3044C175.703 38.1635 175.863 37.9445 175.959 37.6471C176.071 37.3498 176.135 37.0994 176.151 36.896C176.167 36.6769 176.175 36.3483 176.175 35.9101Z" fill="#010101"/>
<path d="M179.874 31.9667V30.3236H189V31.9667H185.47V46.7546H183.404V31.9667H179.874Z" fill="#010101"/>
<path d="M85.8636 52.2238C86.2638 52.0673 86.7361 51.9343 87.2804 51.8247C87.8248 51.6995 88.5692 51.6369 89.5138 51.6369C90.4744 51.6369 91.419 51.7778 92.3476 52.0595L91.9873 53.5852C91.1869 53.3974 90.3944 53.3035 89.6099 53.3035C88.8414 53.3035 88.2651 53.3348 87.8808 53.3974C87.4966 53.46 87.1844 53.5695 86.9442 53.726C86.7201 53.8825 86.536 54.0312 86.3919 54.172C86.2638 54.3128 86.1678 54.5319 86.1037 54.8292C86.0397 55.2048 86.0077 55.7447 86.0077 56.4489V63.8193C86.0077 65.0712 86.1357 65.8302 86.3919 66.0962C86.8082 66.5187 87.2564 66.7691 87.7367 66.8473C88.217 66.9256 88.8334 66.9647 89.5859 66.9647C90.3383 66.9647 91.2109 66.8395 92.2035 66.5891L92.6598 67.974C91.5871 68.4122 90.4424 68.6313 89.2256 68.6313C88.0729 68.6313 87.2724 68.553 86.8242 68.3966C86.3759 68.2401 86.0237 68.1071 85.7675 67.9975C85.5114 67.888 85.2792 67.7002 85.0711 67.4342C84.879 67.1681 84.7189 66.9412 84.5908 66.7535C84.4627 66.5657 84.3506 66.2605 84.2546 65.838C84.1745 65.4155 84.1105 65.0634 84.0625 64.7817C84.0144 64.4844 83.9824 64.0306 83.9664 63.4203C83.9344 62.231 83.9184 61.1121 83.9184 60.0637C83.9184 59.0152 83.9264 58.225 83.9424 57.6929C83.9584 57.1609 83.9904 56.5193 84.0385 55.7682C84.1025 55.017 84.2066 54.485 84.3506 54.172C84.4947 53.8434 84.6869 53.4757 84.927 53.0688C85.1671 52.6463 85.4793 52.3646 85.8636 52.2238Z" fill="#010101"/>
<path d="M103.599 68.0914C103.215 68.2322 102.742 68.3574 102.182 68.467C101.638 68.5765 101.045 68.6313 100.405 68.6313C99.7645 68.6313 99.2282 68.6078 98.7959 68.5609C98.3796 68.5296 98.0034 68.4591 97.6672 68.3496C97.331 68.2244 97.0348 68.1071 96.7787 67.9975C96.5225 67.888 96.2904 67.7002 96.0822 67.4342C95.8901 67.1681 95.73 66.9412 95.6019 66.7535C95.4739 66.5657 95.3618 66.2605 95.2657 65.838C95.1857 65.4155 95.1216 65.0634 95.0736 64.7817C95.0256 64.4844 94.9936 64.0306 94.9776 63.4203C94.9455 62.231 94.9295 61.1121 94.9295 60.0637C94.9295 59.0152 94.9375 58.225 94.9535 57.6929C94.9696 57.1609 95.0016 56.5193 95.0496 55.7682C95.1136 55.017 95.2177 54.485 95.3618 54.172C95.5059 53.8434 95.698 53.4757 95.9381 53.0688C96.1783 52.6463 96.4905 52.3568 96.8747 52.2003C97.8994 51.8247 98.98 51.6369 100.117 51.6369C101.253 51.6369 102.15 51.7543 102.806 51.989C103.479 52.2081 104.007 52.4741 104.391 52.7871C104.776 53.1001 105.048 53.6791 105.208 54.5241C105.384 55.3691 105.488 56.1359 105.52 56.8244C105.552 57.513 105.568 58.5223 105.568 59.8524C105.568 61.1669 105.56 62.0902 105.544 62.6222C105.528 63.1543 105.488 63.7959 105.424 64.547C105.376 65.2981 105.28 65.838 105.136 66.1666C104.992 66.4796 104.8 66.8395 104.559 67.2464C104.319 67.6532 103.999 67.9349 103.599 68.0914ZM103.479 63.8193V56.4489C103.479 55.197 103.343 54.438 103.071 54.172C102.67 53.7495 102.23 53.4991 101.75 53.4209C101.285 53.3426 100.789 53.3035 100.261 53.3035C99.7325 53.3035 99.2762 53.3348 98.892 53.3974C98.5077 53.46 98.1955 53.5695 97.9554 53.726C97.7313 53.8825 97.5471 54.0312 97.403 54.172C97.275 54.3128 97.1789 54.5319 97.1149 54.8292C97.0508 55.2048 97.0188 55.7447 97.0188 56.4489V63.8193C97.0188 65.0712 97.1469 65.8302 97.403 66.0962C97.8193 66.5187 98.2676 66.7691 98.7479 66.8473C99.2282 66.9256 99.7325 66.9647 100.261 66.9647C100.789 66.9647 101.237 66.9334 101.606 66.8708C101.99 66.8082 102.294 66.6987 102.518 66.5422C102.758 66.3857 102.942 66.237 103.071 66.0962C103.215 65.9554 103.311 65.7363 103.359 65.439C103.439 65.0634 103.479 64.5235 103.479 63.8193Z" fill="#010101"/>
<path d="M109.045 51.9186H112.071L116.898 65.6268H117.042V51.9186H119.059V68.3496H116.033L111.206 54.6415H111.062V68.3496H109.045V51.9186Z" fill="#010101"/>
<path d="M124.479 52.2238C124.879 52.0673 125.351 51.9343 125.895 51.8247C126.44 51.6995 127.184 51.6369 128.129 51.6369C129.089 51.6369 130.034 51.7778 130.963 52.0595L130.602 53.5852C129.802 53.3974 129.009 53.3035 128.225 53.3035C127.456 53.3035 126.88 53.3348 126.496 53.3974C126.112 53.46 125.799 53.5695 125.559 53.726C125.335 53.8825 125.151 54.0312 125.007 54.172C124.879 54.3128 124.783 54.5319 124.719 54.8292C124.655 55.2048 124.623 55.7447 124.623 56.4489V63.8193C124.623 65.0712 124.751 65.8302 125.007 66.0962C125.423 66.5187 125.871 66.7691 126.352 66.8473C126.832 66.9256 127.448 66.9647 128.201 66.9647C128.953 66.9647 129.826 66.8395 130.818 66.5891L131.275 67.974C130.202 68.4122 129.057 68.6313 127.841 68.6313C126.688 68.6313 125.887 68.553 125.439 68.3966C124.991 68.2401 124.639 68.1071 124.383 67.9975C124.126 67.888 123.894 67.7002 123.686 67.4342C123.494 67.1681 123.334 66.9412 123.206 66.7535C123.078 66.5657 122.966 66.2605 122.87 65.838C122.79 65.4155 122.725 65.0634 122.677 64.7817C122.629 64.4844 122.597 64.0306 122.581 63.4203C122.549 62.231 122.533 61.1121 122.533 60.0637C122.533 59.0152 122.541 58.225 122.557 57.6929C122.573 57.1609 122.605 56.5193 122.653 55.7682C122.717 55.017 122.822 54.485 122.966 54.172C123.11 53.8434 123.302 53.4757 123.542 53.0688C123.782 52.6463 124.094 52.3646 124.479 52.2238Z" fill="#010101"/>
<path d="M133.905 51.9186H135.97V68.3496H133.905V51.9186Z" fill="#010101"/>
<path d="M139.803 68.3496V51.9186H147.8L147.56 53.5617H141.869V59.2891H147.08V60.9322H141.869V66.7065H148.04V68.3496H139.803Z" fill="#010101"/>
<path d="M154.3 62.0589H152.739V68.3496H150.674V51.9186H154.3C156.221 51.9186 157.59 52.302 158.407 53.0688C159.223 53.8199 159.631 55.1266 159.631 56.9888C159.631 58.2719 159.439 59.2891 159.055 60.0402C158.687 60.7757 158.094 61.2999 157.278 61.6129L160.04 68.3496H157.926L155.285 62.0354C155.077 62.0511 154.748 62.0589 154.3 62.0589ZM157.542 57.5052V56.4723C157.542 56.0342 157.534 55.7134 157.518 55.51C157.502 55.2909 157.438 55.0327 157.326 54.7354C157.23 54.438 157.07 54.219 156.846 54.0781C156.285 53.7495 155.445 53.5852 154.324 53.5852H152.739V60.3923H154.324C155.445 60.3923 156.285 60.228 156.846 59.8994C157.07 59.7585 157.23 59.5395 157.326 59.2421C157.438 58.9448 157.502 58.6944 157.518 58.491C157.534 58.2719 157.542 57.9433 157.542 57.5052Z" fill="#010101"/>
<path d="M172.336 67.7393C171.872 67.9897 171.223 68.2009 170.391 68.3731C169.558 68.5452 168.838 68.6313 168.23 68.6313C167.621 68.6313 167.101 68.6078 166.669 68.5609C166.252 68.5296 165.876 68.4591 165.54 68.3496C165.204 68.2244 164.908 68.1071 164.651 67.9975C164.395 67.888 164.163 67.7002 163.955 67.4342C163.763 67.1681 163.603 66.9412 163.475 66.7535C163.347 66.5657 163.234 66.2605 163.138 65.838C163.058 65.4155 162.994 65.0634 162.946 64.7817C162.898 64.4844 162.866 64.0306 162.85 63.4203C162.818 62.231 162.802 61.1121 162.802 60.0637C162.802 59.0152 162.81 58.225 162.826 57.6929C162.842 57.1609 162.874 56.5193 162.922 55.7682C162.986 55.017 163.09 54.485 163.234 54.172C163.379 53.8434 163.571 53.4757 163.811 53.0688C164.051 52.6463 164.363 52.3568 164.747 52.2003C165.772 51.8247 166.893 51.6369 168.109 51.6369C169.342 51.6369 170.543 51.8091 171.712 52.1533L171.351 53.6791C170.279 53.4287 169.318 53.3035 168.47 53.3035C167.621 53.3035 166.981 53.3583 166.549 53.4678C166.132 53.5774 165.812 53.7026 165.588 53.8434C165.364 53.9842 165.196 54.2111 165.084 54.5241C164.988 54.8371 164.932 55.1109 164.916 55.3457C164.899 55.5647 164.891 55.909 164.891 56.3785V63.8193C164.891 65.0712 165.02 65.8302 165.276 66.0962C165.692 66.5187 166.14 66.7691 166.621 66.8473C167.101 66.9256 167.677 66.9647 168.35 66.9647C169.022 66.9647 169.71 66.8943 170.415 66.7535V61.4251H168.133V60.0167H172.336V67.7393Z" fill="#010101"/>
<path d="M175.932 68.3496V51.9186H183.929L183.689 53.5617H177.998V59.2891H183.209V60.9322H177.998V66.7065H184.17V68.3496H175.932Z" fill="#010101"/>
<path fill-rule="evenodd" clip-rule="evenodd" d="M74.3623 32.7064C66.4382 42.1387 53.9334 52.771 38.8602 57.3364C26.9055 54.2071 8.28756 44.4406 2.65221 23.4775C8.15106 9.71972 21.6017 0 37.3224 0C56.3721 0 72.0884 14.2718 74.3623 32.7064ZM0.194925 33.4845C6.26887 43.1806 18.4375 55.3941 37.324 57.778C27.3949 60.4792 16.4051 60.5026 4.91057 55.8403C1.78604 50.3832 0 44.0614 0 37.3224C0 36.0266 0.0660356 34.7463 0.194925 33.4845ZM72.9204 48.5695C50.9869 70.2051 23.2823 65.1582 5.43073 56.7206C11.9822 67.4686 23.8143 74.6449 37.3224 74.6449C54.0156 74.6449 68.1491 63.6856 72.9204 48.5695ZM36.3083 22.2821L22.7336 10.1655L23.9571 27.6321L24.5489 40.5708L31.9828 29.7512L60.7407 42.829L36.3083 22.2821Z" fill="url(#paint0_angular_286_11)"/>
<defs>
<radialGradient id="paint0_angular_286_11" cx="0" cy="0" r="1" gradientUnits="userSpaceOnUse" gradientTransform="translate(31.676 27.9804) rotate(101.124) scale(61.3015 61.0694)">
<stop offset="0.0117712" stop-color="#FF7A00" stop-opacity="0.66"/>
<stop offset="0.145833" stop-color="#CF1801" stop-opacity="0.67"/>
<stop offset="0.381999" stop-color="#FF003D" stop-opacity="0.82"/>
<stop offset="0.630208" stop-color="#A11497" stop-opacity="0.858696"/>
<stop offset="0.831" stop-color="#5523E0" stop-opacity="0.81"/>
</radialGradient>
</defs>
</svg>
